<mxfile host="65bd71144e">
    <diagram name="Page-1" id="4aMb7WHl3r88KMiQL37s">
        <mxGraphModel dx="2308" dy="2124" grid="1" gridSize="10" guides="1" tooltips="1" connect="1" arrows="1" fold="1" page="1" pageScale="1" pageWidth="1169" pageHeight="1654" math="0" shadow="0">
            <root>
                <mxCell id="0"/>
                <mxCell id="1" parent="0"/>
                <mxCell id="t0WWKyNTVqj59xOwEJvP-4" style="edgeStyle=orthogonalEdgeStyle;rounded=0;orthogonalLoop=1;jettySize=auto;html=1;exitX=0.5;exitY=1;exitDx=0;exitDy=0;entryX=0.5;entryY=0;entryDx=0;entryDy=0;" parent="1" source="t0WWKyNTVqj59xOwEJvP-1" target="t0WWKyNTVqj59xOwEJvP-2" edge="1">
                    <mxGeometry relative="1" as="geometry"/>
                </mxCell>
                <mxCell id="t0WWKyNTVqj59xOwEJvP-17" style="edgeStyle=orthogonalEdgeStyle;rounded=0;orthogonalLoop=1;jettySize=auto;html=1;exitX=0.5;exitY=0;exitDx=0;exitDy=0;entryX=0.5;entryY=1;entryDx=0;entryDy=0;" parent="1" source="t0WWKyNTVqj59xOwEJvP-1" target="t0WWKyNTVqj59xOwEJvP-16" edge="1">
                    <mxGeometry relative="1" as="geometry"/>
                </mxCell>
                <mxCell id="t0WWKyNTVqj59xOwEJvP-18" style="edgeStyle=orthogonalEdgeStyle;rounded=0;orthogonalLoop=1;jettySize=auto;html=1;exitX=0.5;exitY=0;exitDx=0;exitDy=0;entryX=0.5;entryY=1;entryDx=0;entryDy=0;" parent="1" source="t0WWKyNTVqj59xOwEJvP-1" target="t0WWKyNTVqj59xOwEJvP-7" edge="1">
                    <mxGeometry relative="1" as="geometry"/>
                </mxCell>
                <mxCell id="t0WWKyNTVqj59xOwEJvP-48" style="edgeStyle=orthogonalEdgeStyle;rounded=0;orthogonalLoop=1;jettySize=auto;html=1;exitX=0.5;exitY=0;exitDx=0;exitDy=0;entryX=0.5;entryY=1;entryDx=0;entryDy=0;" parent="1" source="t0WWKyNTVqj59xOwEJvP-1" target="t0WWKyNTVqj59xOwEJvP-46" edge="1">
                    <mxGeometry relative="1" as="geometry"/>
                </mxCell>
                <mxCell id="t0WWKyNTVqj59xOwEJvP-63" style="edgeStyle=orthogonalEdgeStyle;rounded=0;orthogonalLoop=1;jettySize=auto;html=1;exitX=0.75;exitY=0;exitDx=0;exitDy=0;entryX=0.5;entryY=1;entryDx=0;entryDy=0;" parent="1" source="t0WWKyNTVqj59xOwEJvP-1" target="t0WWKyNTVqj59xOwEJvP-62" edge="1">
                    <mxGeometry relative="1" as="geometry">
                        <Array as="points">
                            <mxPoint x="610" y="230"/>
                            <mxPoint x="838" y="230"/>
                        </Array>
                    </mxGeometry>
                </mxCell>
                <mxCell id="t0WWKyNTVqj59xOwEJvP-75" style="edgeStyle=orthogonalEdgeStyle;rounded=0;orthogonalLoop=1;jettySize=auto;html=1;exitX=0;exitY=0.5;exitDx=0;exitDy=0;entryX=1;entryY=0.5;entryDx=0;entryDy=0;" parent="1" source="t0WWKyNTVqj59xOwEJvP-1" target="t0WWKyNTVqj59xOwEJvP-13" edge="1">
                    <mxGeometry relative="1" as="geometry"/>
                </mxCell>
                <mxCell id="t0WWKyNTVqj59xOwEJvP-76" style="edgeStyle=orthogonalEdgeStyle;rounded=0;orthogonalLoop=1;jettySize=auto;html=1;exitX=0.25;exitY=1;exitDx=0;exitDy=0;entryX=0.5;entryY=0;entryDx=0;entryDy=0;" parent="1" source="t0WWKyNTVqj59xOwEJvP-1" target="t0WWKyNTVqj59xOwEJvP-11" edge="1">
                    <mxGeometry relative="1" as="geometry"/>
                </mxCell>
                <mxCell id="t0WWKyNTVqj59xOwEJvP-77" style="edgeStyle=orthogonalEdgeStyle;rounded=0;orthogonalLoop=1;jettySize=auto;html=1;exitX=0.75;exitY=1;exitDx=0;exitDy=0;entryX=0.5;entryY=0;entryDx=0;entryDy=0;" parent="1" source="t0WWKyNTVqj59xOwEJvP-1" target="t0WWKyNTVqj59xOwEJvP-10" edge="1">
                    <mxGeometry relative="1" as="geometry"/>
                </mxCell>
                <mxCell id="t0WWKyNTVqj59xOwEJvP-78" style="edgeStyle=orthogonalEdgeStyle;rounded=0;orthogonalLoop=1;jettySize=auto;html=1;exitX=1;exitY=0.5;exitDx=0;exitDy=0;entryX=0;entryY=0.5;entryDx=0;entryDy=0;" parent="1" source="t0WWKyNTVqj59xOwEJvP-1" target="t0WWKyNTVqj59xOwEJvP-9" edge="1">
                    <mxGeometry relative="1" as="geometry"/>
                </mxCell>
                <mxCell id="t0WWKyNTVqj59xOwEJvP-1" value="Пациенты" style="rounded=0;whiteSpace=wrap;html=1;" parent="1" vertex="1">
                    <mxGeometry x="520" y="250" width="120" height="30" as="geometry"/>
                </mxCell>
                <mxCell id="t0WWKyNTVqj59xOwEJvP-6" style="edgeStyle=orthogonalEdgeStyle;rounded=0;orthogonalLoop=1;jettySize=auto;html=1;exitX=0.5;exitY=1;exitDx=0;exitDy=0;entryX=0.5;entryY=0;entryDx=0;entryDy=0;" parent="1" source="t0WWKyNTVqj59xOwEJvP-2" target="t0WWKyNTVqj59xOwEJvP-5" edge="1">
                    <mxGeometry relative="1" as="geometry"/>
                </mxCell>
                <mxCell id="t0WWKyNTVqj59xOwEJvP-2" value="Получают&amp;nbsp;" style="rhombus;whiteSpace=wrap;html=1;" parent="1" vertex="1">
                    <mxGeometry x="540" y="440" width="80" height="70" as="geometry"/>
                </mxCell>
                <mxCell id="t0WWKyNTVqj59xOwEJvP-38" style="edgeStyle=orthogonalEdgeStyle;rounded=0;orthogonalLoop=1;jettySize=auto;html=1;exitX=0.75;exitY=0;exitDx=0;exitDy=0;entryX=0.5;entryY=1;entryDx=0;entryDy=0;" parent="1" source="t0WWKyNTVqj59xOwEJvP-5" target="t0WWKyNTVqj59xOwEJvP-29" edge="1">
                    <mxGeometry relative="1" as="geometry"/>
                </mxCell>
                <mxCell id="t0WWKyNTVqj59xOwEJvP-41" style="edgeStyle=orthogonalEdgeStyle;rounded=0;orthogonalLoop=1;jettySize=auto;html=1;exitX=0.75;exitY=1;exitDx=0;exitDy=0;entryX=0.5;entryY=0;entryDx=0;entryDy=0;" parent="1" source="t0WWKyNTVqj59xOwEJvP-5" target="t0WWKyNTVqj59xOwEJvP-32" edge="1">
                    <mxGeometry relative="1" as="geometry"/>
                </mxCell>
                <mxCell id="t0WWKyNTVqj59xOwEJvP-68" style="edgeStyle=orthogonalEdgeStyle;rounded=0;orthogonalLoop=1;jettySize=auto;html=1;exitX=0;exitY=0.75;exitDx=0;exitDy=0;entryX=1;entryY=0;entryDx=0;entryDy=0;" parent="1" source="t0WWKyNTVqj59xOwEJvP-5" target="t0WWKyNTVqj59xOwEJvP-15" edge="1">
                    <mxGeometry relative="1" as="geometry"/>
                </mxCell>
                <mxCell id="t0WWKyNTVqj59xOwEJvP-71" style="edgeStyle=orthogonalEdgeStyle;rounded=0;orthogonalLoop=1;jettySize=auto;html=1;exitX=1;exitY=0.25;exitDx=0;exitDy=0;entryX=0;entryY=0.5;entryDx=0;entryDy=0;" parent="1" source="t0WWKyNTVqj59xOwEJvP-5" target="t0WWKyNTVqj59xOwEJvP-69" edge="1">
                    <mxGeometry relative="1" as="geometry"/>
                </mxCell>
                <mxCell id="t0WWKyNTVqj59xOwEJvP-72" style="edgeStyle=orthogonalEdgeStyle;rounded=0;orthogonalLoop=1;jettySize=auto;html=1;exitX=1;exitY=0.75;exitDx=0;exitDy=0;entryX=0;entryY=0.5;entryDx=0;entryDy=0;" parent="1" source="t0WWKyNTVqj59xOwEJvP-5" target="t0WWKyNTVqj59xOwEJvP-70" edge="1">
                    <mxGeometry relative="1" as="geometry"/>
                </mxCell>
                <mxCell id="t0WWKyNTVqj59xOwEJvP-74" style="edgeStyle=orthogonalEdgeStyle;rounded=0;orthogonalLoop=1;jettySize=auto;html=1;exitX=0.25;exitY=1;exitDx=0;exitDy=0;entryX=0.5;entryY=0;entryDx=0;entryDy=0;" parent="1" source="t0WWKyNTVqj59xOwEJvP-5" target="t0WWKyNTVqj59xOwEJvP-73" edge="1">
                    <mxGeometry relative="1" as="geometry"/>
                </mxCell>
                <mxCell id="t0WWKyNTVqj59xOwEJvP-79" style="edgeStyle=orthogonalEdgeStyle;rounded=0;orthogonalLoop=1;jettySize=auto;html=1;exitX=0.25;exitY=0;exitDx=0;exitDy=0;entryX=0.5;entryY=1;entryDx=0;entryDy=0;" parent="1" source="t0WWKyNTVqj59xOwEJvP-5" target="t0WWKyNTVqj59xOwEJvP-35" edge="1">
                    <mxGeometry relative="1" as="geometry"/>
                </mxCell>
                <mxCell id="t0WWKyNTVqj59xOwEJvP-80" style="edgeStyle=orthogonalEdgeStyle;rounded=0;orthogonalLoop=1;jettySize=auto;html=1;exitX=0;exitY=0.25;exitDx=0;exitDy=0;entryX=1;entryY=0.5;entryDx=0;entryDy=0;" parent="1" source="t0WWKyNTVqj59xOwEJvP-5" target="t0WWKyNTVqj59xOwEJvP-36" edge="1">
                    <mxGeometry relative="1" as="geometry"/>
                </mxCell>
                <mxCell id="t0WWKyNTVqj59xOwEJvP-5" value="Лечение" style="rounded=0;whiteSpace=wrap;html=1;" parent="1" vertex="1">
                    <mxGeometry x="520" y="640" width="120" height="30" as="geometry"/>
                </mxCell>
                <mxCell id="t0WWKyNTVqj59xOwEJvP-7" value="Регистрационные данные" style="ellipse;shape=doubleEllipse;whiteSpace=wrap;html=1;" parent="1" vertex="1">
                    <mxGeometry x="640" y="130" width="130" height="60" as="geometry"/>
                </mxCell>
                <mxCell id="t0WWKyNTVqj59xOwEJvP-9" value="Антропометрия" style="ellipse;shape=doubleEllipse;whiteSpace=wrap;html=1;" parent="1" vertex="1">
                    <mxGeometry x="790" y="250" width="100" height="60" as="geometry"/>
                </mxCell>
                <mxCell id="t0WWKyNTVqj59xOwEJvP-10" value="Медицинская история" style="ellipse;shape=doubleEllipse;whiteSpace=wrap;html=1;" parent="1" vertex="1">
                    <mxGeometry x="692.5" y="340" width="100" height="60" as="geometry"/>
                </mxCell>
                <mxCell id="t0WWKyNTVqj59xOwEJvP-11" value="Данные о стиле жизни" style="ellipse;shape=doubleEllipse;whiteSpace=wrap;html=1;" parent="1" vertex="1">
                    <mxGeometry x="390" y="340" width="120" height="60" as="geometry"/>
                </mxCell>
                <mxCell id="t0WWKyNTVqj59xOwEJvP-13" value="Цели" style="ellipse;shape=doubleEllipse;whiteSpace=wrap;html=1;" parent="1" vertex="1">
                    <mxGeometry x="310" y="260" width="100" height="60" as="geometry"/>
                </mxCell>
                <mxCell id="t0WWKyNTVqj59xOwEJvP-15" value="История встреч&amp;nbsp;" style="ellipse;shape=doubleEllipse;whiteSpace=wrap;html=1;" parent="1" vertex="1">
                    <mxGeometry x="310" y="720" width="100" height="60" as="geometry"/>
                </mxCell>
                <mxCell id="t0WWKyNTVqj59xOwEJvP-16" value="Номер карты пациента" style="ellipse;whiteSpace=wrap;html=1;" parent="1" vertex="1">
                    <mxGeometry x="430" y="110" width="120" height="60" as="geometry"/>
                </mxCell>
                <mxCell id="t0WWKyNTVqj59xOwEJvP-29" value="Дата начала терапии" style="ellipse;whiteSpace=wrap;html=1;" parent="1" vertex="1">
                    <mxGeometry x="652.5" y="520" width="120" height="60" as="geometry"/>
                </mxCell>
                <mxCell id="t0WWKyNTVqj59xOwEJvP-32" value="Текущие назначения" style="ellipse;shape=doubleEllipse;whiteSpace=wrap;html=1;" parent="1" vertex="1">
                    <mxGeometry x="640" y="780" width="100" height="60" as="geometry"/>
                </mxCell>
                <mxCell id="t0WWKyNTVqj59xOwEJvP-35" value="Дата окончания терапии" style="ellipse;whiteSpace=wrap;html=1;" parent="1" vertex="1">
                    <mxGeometry x="380" y="520" width="120" height="60" as="geometry"/>
                </mxCell>
                <mxCell id="t0WWKyNTVqj59xOwEJvP-36" value="Конечный результат" style="ellipse;whiteSpace=wrap;html=1;" parent="1" vertex="1">
                    <mxGeometry x="260" y="600" width="120" height="60" as="geometry"/>
                </mxCell>
                <mxCell id="t0WWKyNTVqj59xOwEJvP-49" style="edgeStyle=orthogonalEdgeStyle;rounded=0;orthogonalLoop=1;jettySize=auto;html=1;exitX=0.5;exitY=0;exitDx=0;exitDy=0;entryX=0.5;entryY=1;entryDx=0;entryDy=0;" parent="1" source="t0WWKyNTVqj59xOwEJvP-46" target="t0WWKyNTVqj59xOwEJvP-47" edge="1">
                    <mxGeometry relative="1" as="geometry"/>
                </mxCell>
                <mxCell id="t0WWKyNTVqj59xOwEJvP-46" value="Сдают" style="rhombus;whiteSpace=wrap;html=1;" parent="1" vertex="1">
                    <mxGeometry x="540" y="40" width="80" height="80" as="geometry"/>
                </mxCell>
                <mxCell id="t0WWKyNTVqj59xOwEJvP-56" style="edgeStyle=orthogonalEdgeStyle;rounded=0;orthogonalLoop=1;jettySize=auto;html=1;exitX=0.75;exitY=0;exitDx=0;exitDy=0;entryX=0.5;entryY=1;entryDx=0;entryDy=0;" parent="1" source="t0WWKyNTVqj59xOwEJvP-47" target="t0WWKyNTVqj59xOwEJvP-50" edge="1">
                    <mxGeometry relative="1" as="geometry"/>
                </mxCell>
                <mxCell id="t0WWKyNTVqj59xOwEJvP-57" style="edgeStyle=orthogonalEdgeStyle;rounded=0;orthogonalLoop=1;jettySize=auto;html=1;exitX=0.25;exitY=0;exitDx=0;exitDy=0;entryX=0.5;entryY=1;entryDx=0;entryDy=0;" parent="1" source="t0WWKyNTVqj59xOwEJvP-47" target="t0WWKyNTVqj59xOwEJvP-55" edge="1">
                    <mxGeometry relative="1" as="geometry"/>
                </mxCell>
                <mxCell id="t0WWKyNTVqj59xOwEJvP-58" style="edgeStyle=orthogonalEdgeStyle;rounded=0;orthogonalLoop=1;jettySize=auto;html=1;exitX=1;exitY=0.5;exitDx=0;exitDy=0;entryX=0;entryY=0.5;entryDx=0;entryDy=0;" parent="1" source="t0WWKyNTVqj59xOwEJvP-47" target="t0WWKyNTVqj59xOwEJvP-51" edge="1">
                    <mxGeometry relative="1" as="geometry"/>
                </mxCell>
                <mxCell id="t0WWKyNTVqj59xOwEJvP-59" style="edgeStyle=orthogonalEdgeStyle;rounded=0;orthogonalLoop=1;jettySize=auto;html=1;exitX=0.75;exitY=1;exitDx=0;exitDy=0;entryX=0.5;entryY=0;entryDx=0;entryDy=0;" parent="1" source="t0WWKyNTVqj59xOwEJvP-47" target="t0WWKyNTVqj59xOwEJvP-52" edge="1">
                    <mxGeometry relative="1" as="geometry"/>
                </mxCell>
                <mxCell id="4" style="edgeStyle=none;html=1;exitX=0;exitY=0.5;exitDx=0;exitDy=0;" parent="1" source="t0WWKyNTVqj59xOwEJvP-47" target="3" edge="1">
                    <mxGeometry relative="1" as="geometry"/>
                </mxCell>
                <mxCell id="t0WWKyNTVqj59xOwEJvP-47" value="Анализы пациента" style="rounded=0;whiteSpace=wrap;html=1;" parent="1" vertex="1">
                    <mxGeometry x="520" y="-120" width="120" height="30" as="geometry"/>
                </mxCell>
                <mxCell id="t0WWKyNTVqj59xOwEJvP-50" value="Название" style="ellipse;whiteSpace=wrap;html=1;" parent="1" vertex="1">
                    <mxGeometry x="630" y="-210" width="120" height="50" as="geometry"/>
                </mxCell>
                <mxCell id="t0WWKyNTVqj59xOwEJvP-51" value="Результат" style="ellipse;whiteSpace=wrap;html=1;" parent="1" vertex="1">
                    <mxGeometry x="740" y="-130" width="120" height="50" as="geometry"/>
                </mxCell>
                <mxCell id="t0WWKyNTVqj59xOwEJvP-52" value="Расшифровка" style="ellipse;whiteSpace=wrap;html=1;" parent="1" vertex="1">
                    <mxGeometry x="640" y="-40" width="120" height="50" as="geometry"/>
                </mxCell>
                <mxCell id="t0WWKyNTVqj59xOwEJvP-53" value="Комментарий" style="ellipse;whiteSpace=wrap;html=1;" parent="1" vertex="1">
                    <mxGeometry x="395" y="-40" width="120" height="50" as="geometry"/>
                </mxCell>
                <mxCell id="t0WWKyNTVqj59xOwEJvP-55" value="Дата сдачи" style="ellipse;whiteSpace=wrap;html=1;" parent="1" vertex="1">
                    <mxGeometry x="420" y="-210" width="120" height="50" as="geometry"/>
                </mxCell>
                <mxCell id="t0WWKyNTVqj59xOwEJvP-60" style="edgeStyle=orthogonalEdgeStyle;rounded=0;orthogonalLoop=1;jettySize=auto;html=1;exitX=0.25;exitY=1;exitDx=0;exitDy=0;entryX=0.5;entryY=0;entryDx=0;entryDy=0;" parent="1" source="t0WWKyNTVqj59xOwEJvP-47" target="t0WWKyNTVqj59xOwEJvP-53" edge="1">
                    <mxGeometry relative="1" as="geometry"/>
                </mxCell>
                <mxCell id="t0WWKyNTVqj59xOwEJvP-62" value="Краткий анамнез" style="ellipse;whiteSpace=wrap;html=1;" parent="1" vertex="1">
                    <mxGeometry x="792.5" y="150" width="90" height="50" as="geometry"/>
                </mxCell>
                <mxCell id="t0WWKyNTVqj59xOwEJvP-69" value="Рекомендации" style="ellipse;whiteSpace=wrap;html=1;" parent="1" vertex="1">
                    <mxGeometry x="785" y="600" width="105" height="50" as="geometry"/>
                </mxCell>
                <mxCell id="t0WWKyNTVqj59xOwEJvP-70" value="Дообследования" style="ellipse;whiteSpace=wrap;html=1;" parent="1" vertex="1">
                    <mxGeometry x="770" y="690" width="120" height="60" as="geometry"/>
                </mxCell>
                <mxCell id="t0WWKyNTVqj59xOwEJvP-73" value="Промежуточнй результат" style="ellipse;whiteSpace=wrap;html=1;" parent="1" vertex="1">
                    <mxGeometry x="440" y="780" width="110" height="60" as="geometry"/>
                </mxCell>
                <mxCell id="12" style="edgeStyle=none;html=1;exitX=0.5;exitY=0;exitDx=0;exitDy=0;entryX=0.5;entryY=1;entryDx=0;entryDy=0;" parent="1" source="2" target="6" edge="1">
                    <mxGeometry relative="1" as="geometry"/>
                </mxCell>
                <mxCell id="13" style="edgeStyle=none;html=1;exitX=0.75;exitY=0;exitDx=0;exitDy=0;entryX=0;entryY=1;entryDx=0;entryDy=0;" parent="1" source="2" target="7" edge="1">
                    <mxGeometry relative="1" as="geometry"/>
                </mxCell>
                <mxCell id="14" style="edgeStyle=none;html=1;exitX=0.75;exitY=1;exitDx=0;exitDy=0;entryX=0.5;entryY=0;entryDx=0;entryDy=0;" parent="1" source="2" target="8" edge="1">
                    <mxGeometry relative="1" as="geometry"/>
                </mxCell>
                <mxCell id="15" style="edgeStyle=none;html=1;exitX=0.25;exitY=1;exitDx=0;exitDy=0;entryX=0.5;entryY=0;entryDx=0;entryDy=0;" parent="1" source="2" target="9" edge="1">
                    <mxGeometry relative="1" as="geometry"/>
                </mxCell>
                <mxCell id="16" style="edgeStyle=none;html=1;exitX=0;exitY=0.5;exitDx=0;exitDy=0;entryX=1;entryY=0.5;entryDx=0;entryDy=0;" parent="1" source="2" target="10" edge="1">
                    <mxGeometry relative="1" as="geometry"/>
                </mxCell>
                <mxCell id="17" style="edgeStyle=none;html=1;exitX=0.25;exitY=0;exitDx=0;exitDy=0;entryX=1;entryY=0.5;entryDx=0;entryDy=0;" parent="1" source="2" target="11" edge="1">
                    <mxGeometry relative="1" as="geometry"/>
                </mxCell>
                <mxCell id="2" value="Анализы" style="rounded=0;whiteSpace=wrap;html=1;" parent="1" vertex="1">
                    <mxGeometry x="50" y="-122.5" width="120" height="35" as="geometry"/>
                </mxCell>
                <mxCell id="5" style="edgeStyle=none;html=1;exitX=0;exitY=0.5;exitDx=0;exitDy=0;entryX=1;entryY=0.5;entryDx=0;entryDy=0;" parent="1" source="3" target="2" edge="1">
                    <mxGeometry relative="1" as="geometry"/>
                </mxCell>
                <mxCell id="3" value="Расшифровывеются" style="rhombus;whiteSpace=wrap;html=1;" parent="1" vertex="1">
                    <mxGeometry x="270" y="-170" width="160" height="130" as="geometry"/>
                </mxCell>
                <mxCell id="6" value="Название" style="ellipse;whiteSpace=wrap;html=1;" parent="1" vertex="1">
                    <mxGeometry x="50" y="-240" width="120" height="50" as="geometry"/>
                </mxCell>
                <mxCell id="7" value="Показатель" style="ellipse;whiteSpace=wrap;html=1;" parent="1" vertex="1">
                    <mxGeometry x="180" y="-210" width="120" height="60" as="geometry"/>
                </mxCell>
                <mxCell id="8" value="Оптимум начало" style="ellipse;whiteSpace=wrap;html=1;" parent="1" vertex="1">
                    <mxGeometry x="160" y="-40" width="120" height="55" as="geometry"/>
                </mxCell>
                <mxCell id="9" value="Оптимум конец" style="ellipse;whiteSpace=wrap;html=1;" parent="1" vertex="1">
                    <mxGeometry x="-40" y="-40" width="120" height="60" as="geometry"/>
                </mxCell>
                <mxCell id="10" value="Сниженное значение" style="ellipse;whiteSpace=wrap;html=1;" parent="1" vertex="1">
                    <mxGeometry x="-170" y="-100" width="120" height="55" as="geometry"/>
                </mxCell>
                <mxCell id="11" value="Повышенное значение" style="ellipse;whiteSpace=wrap;html=1;" parent="1" vertex="1">
                    <mxGeometry x="-150" y="-190" width="120" height="50" as="geometry"/>
                </mxCell>
                <mxCell id="18" value="Текущий/архив" style="ellipse;whiteSpace=wrap;html=1;" vertex="1" parent="1">
                    <mxGeometry x="320" y="170" width="120" height="60" as="geometry"/>
                </mxCell>
                <mxCell id="21" value="" style="edgeStyle=elbowEdgeStyle;elbow=horizontal;endArrow=classic;html=1;curved=0;rounded=0;endSize=8;startSize=8;entryX=1;entryY=0.5;entryDx=0;entryDy=0;exitX=0;exitY=0.25;exitDx=0;exitDy=0;" edge="1" parent="1" source="t0WWKyNTVqj59xOwEJvP-1" target="18">
                    <mxGeometry width="50" height="50" relative="1" as="geometry">
                        <mxPoint x="430" y="290" as="sourcePoint"/>
                        <mxPoint x="480" y="240" as="targetPoint"/>
                    </mxGeometry>
                </mxCell>
            </root>
        </mxGraphModel>
    </diagram>
</mxfile>